# xmcd
#
# Track frame offsets: 
#        150
#        21563
#        52820
#        73676
#        99794
#        126112
#        151013
#        171541
#
# Disc length: 2721 seconds
#
# Revision: 0
# Processed by: cddbd v1.5.2PL0 Copyright (c) Steve Scherf et al.
# Submitted via: ExactAudioCopyFreeDBPlugin 1.0
#
DISCID=610a9f08
DTITLE=John 'Mad Dog' Watkins - Here I Am
DYEAR=1985
DGENRE=Blues
TTITLE0=Here I Am
TTITLE1=As The Years Go Passing By
TTITLE2=Dead Or Alive
TTITLE3=Call The Plumber
TTITLE4=Gangster Of Love
TTITLE5=Long Distance Call
TTITLE6=The Same Thing
TTITLE7=I Got The Blues
EXTD=
EXTT0=
EXTT1=
EXTT2=
EXTT3=
EXTT4=
EXTT5=
EXTT6=
EXTT7=
PLAYORDER=
